<svg width="38" height="39" viewBox="0 0 38 39" fill="none" xmlns="http://www.w3.org/2000/svg">
<path d="M22.932 31.089V24.1348C22.932 23.8274 22.8099 23.5326 22.5926 23.3153C22.3752 23.0979 22.0804 22.9758 21.773 22.9758H17.137C16.8296 22.9758 16.5348 23.0979 16.3175 23.3153C16.1001 23.5326 15.978 23.8274 15.978 24.1348V31.089C15.978 31.3964 15.8559 31.6911 15.6386 31.9085C15.4213 32.1258 15.1265 32.248 14.8191 32.248L7.86594 32.2489C7.71372 32.2489 7.563 32.219 7.42236 32.1607C7.28173 32.1025 7.15394 32.0171 7.0463 31.9095C6.93866 31.8019 6.85328 31.6741 6.79503 31.5335C6.73677 31.3929 6.70679 31.2421 6.70679 31.0899V17.6946C6.70679 17.5332 6.74053 17.3735 6.80585 17.2258C6.87116 17.0781 6.96662 16.9457 7.08609 16.8371L18.6754 6.29959C18.8887 6.10561 19.1667 5.99812 19.455 5.99811C19.7434 5.9981 20.0214 6.10557 20.2347 6.29953L31.8256 16.8371C31.9451 16.9457 32.0405 17.0781 32.1059 17.2258C32.1712 17.3735 32.205 17.5332 32.205 17.6947V31.0899C32.205 31.2421 32.175 31.3929 32.1167 31.5335C32.0585 31.6741 31.9731 31.8019 31.8654 31.9095C31.7578 32.0171 31.63 32.1025 31.4894 32.1607C31.3487 32.219 31.198 32.249 31.0458 32.2489L24.0909 32.248C23.7835 32.248 23.4888 32.1259 23.2715 31.9085C23.0541 31.6911 22.932 31.3964 22.932 31.089Z" fill="white" fill-opacity="0.35" stroke="white" stroke-width="3.43881" stroke-linecap="round" stroke-linejoin="round"/>
</svg>
