<svg width="38" height="39" viewBox="0 0 38 39" fill="none" xmlns="http://www.w3.org/2000/svg">
<path d="M8.11304 34.5671H28.9752" stroke="white" stroke-opacity="0.35" stroke-width="3.43881" stroke-linecap="round" stroke-linejoin="round"/>
<path d="M18.5441 20.659C21.1045 20.659 23.1801 18.5833 23.1801 16.0229C23.1801 13.4625 21.1045 11.3869 18.5441 11.3869C15.9837 11.3869 13.9081 13.4625 13.9081 16.0229C13.9081 18.5833 15.9837 20.659 18.5441 20.659Z" stroke="white" stroke-opacity="0.35" stroke-width="3.43881" stroke-linecap="round" stroke-linejoin="round"/>
<path d="M30.1341 16.0229C30.1341 26.454 18.5441 34.5671 18.5441 34.5671C18.5441 34.5671 6.95398 26.454 6.95398 16.0229C6.95398 12.9491 8.17507 10.0011 10.3486 7.82752C12.5222 5.65395 15.4702 4.43286 18.5441 4.43286C21.6179 4.43286 24.5659 5.65395 26.7395 7.82752C28.913 10.0011 30.1341 12.9491 30.1341 16.0229V16.0229Z" stroke="white" stroke-width="3.43881" stroke-linecap="round" stroke-linejoin="round"/>
</svg>
